<svg id="visual" viewBox="0 0 1960 1080" width="1960" height="1080" xmlns="http://www.w3.org/2000/svg" xmlns:xlink="http://www.w3.org/1999/xlink" version="1.1"><rect width="1960" height="1080" fill="#931F1F"></rect><g><g transform="translate(894 308)"><path d="M202.3 -64.8C228.2 13.8 191.6 113.6 123.5 161C55.4 208.3 -44.2 203.2 -113.9 153.4C-183.6 103.6 -223.3 9.1 -199.3 -66.9C-175.3 -143 -87.7 -200.5 0.3 -200.6C88.2 -200.7 176.5 -143.3 202.3 -64.8Z" stroke="#F7770F" fill="none" stroke-width="10"></path></g><g transform="translate(1572 290)"><path d="M122.9 -35.6C140.2 13.1 121.8 77.8 77.7 110.7C33.6 143.7 -36.2 144.9 -79.2 112.8C-122.1 80.7 -138.1 15.3 -120.4 -34.1C-102.7 -83.4 -51.4 -116.8 0.7 -117C52.8 -117.2 105.7 -84.4 122.9 -35.6Z" stroke="#F7770F" fill="none" stroke-width="10"></path></g><g transform="translate(1239 844)"><path d="M132.2 -48.4C150.1 12.2 128.8 80 80.9 115.9C33.1 151.7 -41.3 155.4 -87.6 121.6C-133.8 87.7 -152 16.2 -132.8 -46.2C-113.5 -108.7 -56.7 -162 0.2 -162.1C57.1 -162.1 114.3 -108.9 132.2 -48.4Z" stroke="#F7770F" fill="none" stroke-width="10"></path></g></g></svg>