<svg id="visual" viewBox="0 0 1960 1080" height="15em" xmlns="http://www.w3.org/2000/svg" xmlns:xlink="http://www.w3.org/1999/xlink" version="1.1"><g transform="translate(971.7817545757819 580.9749876295813)"><path d="M244.9 -394.4C314.6 -336.3 366.5 -263.7 407 -183.4C447.6 -103.2 476.7 -15.2 469.9 71.2C463.2 157.6 420.5 242.5 356.7 300.1C292.9 357.7 207.8 388 125.5 399.3C43.2 410.7 -36.4 403 -120 387.9C-203.6 372.9 -291.1 350.5 -352.3 296.2C-413.4 241.9 -448.2 155.7 -453.7 69.7C-459.1 -16.3 -435.1 -102 -391.1 -170.4C-347.1 -238.8 -283 -289.7 -214.5 -348.4C-146 -407.1 -73 -473.6 7.3 -484.9C87.6 -496.3 175.2 -452.6 244.9 -394.4" fill="#BB004B"></path></g></svg>