<svg id="visual" viewBox="0 0 1960 1080" width="1960" height="1080" xmlns="http://www.w3.org/2000/svg" xmlns:xlink="http://www.w3.org/1999/xlink" version="1.1"><rect x="0" y="0" width="1960" height="1080" fill="#001220"></rect><defs><linearGradient id="grad1_0" x1="44.9%" y1="0%" x2="100%" y2="100%"><stop offset="13.703703703703702%" stop-color="#fbae3c" stop-opacity="1"></stop><stop offset="86.2962962962963%" stop-color="#fbae3c" stop-opacity="1"></stop></linearGradient></defs><defs><linearGradient id="grad1_1" x1="44.9%" y1="0%" x2="100%" y2="100%"><stop offset="13.703703703703702%" stop-color="#fbae3c" stop-opacity="1"></stop><stop offset="86.2962962962963%" stop-color="#cc5867" stop-opacity="1"></stop></linearGradient></defs><defs><linearGradient id="grad1_2" x1="44.9%" y1="0%" x2="100%" y2="100%"><stop offset="13.703703703703702%" stop-color="#593762" stop-opacity="1"></stop><stop offset="86.2962962962963%" stop-color="#cc5867" stop-opacity="1"></stop></linearGradient></defs><defs><linearGradient id="grad1_3" x1="44.9%" y1="0%" x2="100%" y2="100%"><stop offset="13.703703703703702%" stop-color="#593762" stop-opacity="1"></stop><stop offset="86.2962962962963%" stop-color="#001220" stop-opacity="1"></stop></linearGradient></defs><defs><linearGradient id="grad2_0" x1="0%" y1="0%" x2="55.1%" y2="100%"><stop offset="13.703703703703702%" stop-color="#fbae3c" stop-opacity="1"></stop><stop offset="86.2962962962963%" stop-color="#fbae3c" stop-opacity="1"></stop></linearGradient></defs><defs><linearGradient id="grad2_1" x1="0%" y1="0%" x2="55.1%" y2="100%"><stop offset="13.703703703703702%" stop-color="#cc5867" stop-opacity="1"></stop><stop offset="86.2962962962963%" stop-color="#fbae3c" stop-opacity="1"></stop></linearGradient></defs><defs><linearGradient id="grad2_2" x1="0%" y1="0%" x2="55.1%" y2="100%"><stop offset="13.703703703703702%" stop-color="#cc5867" stop-opacity="1"></stop><stop offset="86.2962962962963%" stop-color="#593762" stop-opacity="1"></stop></linearGradient></defs><defs><linearGradient id="grad2_3" x1="0%" y1="0%" x2="55.1%" y2="100%"><stop offset="13.703703703703702%" stop-color="#001220" stop-opacity="1"></stop><stop offset="86.2962962962963%" stop-color="#593762" stop-opacity="1"></stop></linearGradient></defs><g transform="translate(1960, 0)"><path d="M0 756C-160.7 752.6 -321.3 749.3 -378 654.7C-434.7 560.1 -387.3 374.3 -433 250C-478.7 125.7 -617.3 62.8 -756 0L0 0Z" fill="#232745"></path><path d="M0 567C-120.5 564.5 -241 562 -283.5 491C-326 420.1 -290.5 280.7 -324.8 187.5C-359 94.3 -463 47.1 -567 0L0 0Z" fill="#96446e"></path><path d="M0 378C-80.3 376.3 -160.7 374.6 -189 327.4C-217.3 280.1 -193.7 187.2 -216.5 125C-239.3 62.8 -308.7 31.4 -378 0L0 0Z" fill="#f17c53"></path><path d="M0 189C-40.2 188.2 -80.3 187.3 -94.5 163.7C-108.7 140 -96.8 93.6 -108.3 62.5C-119.7 31.4 -154.3 15.7 -189 0L0 0Z" fill="#fbae3c"></path></g><g transform="translate(0, 1080)"><path d="M0 -756C133.4 -736.9 266.8 -717.8 378 -654.7C489.2 -591.6 578.1 -484.5 637.4 -368C696.7 -251.5 726.3 -125.8 756 0L0 0Z" fill="#232745"></path><path d="M0 -567C100.1 -552.7 200.1 -538.4 283.5 -491C366.9 -443.7 433.6 -363.3 478 -276C522.5 -188.7 544.8 -94.3 567 0L0 0Z" fill="#96446e"></path><path d="M0 -378C66.7 -368.5 133.4 -358.9 189 -327.4C244.6 -295.8 289.1 -242.2 318.7 -184C348.3 -125.8 363.2 -62.9 378 0L0 0Z" fill="#f17c53"></path><path d="M0 -189C33.4 -184.2 66.7 -179.5 94.5 -163.7C122.3 -147.9 144.5 -121.1 159.3 -92C174.2 -62.9 181.6 -31.4 189 0L0 0Z" fill="#fbae3c"></path></g></svg>