<svg id="visual" viewBox="0 0 960 540" width="960" height="540" xmlns="http://www.w3.org/2000/svg" xmlns:xlink="http://www.w3.org/1999/xlink" version="1.1"><path d="M0 104L87 104L87 71L175 71L175 44L262 44L262 71L349 71L349 120L436 120L436 120L524 120L524 114L611 114L611 136L698 136L698 131L785 131L785 60L873 60L873 60L960 60L960 114L960 0L960 0L873 0L873 0L785 0L785 0L698 0L698 0L611 0L611 0L524 0L524 0L436 0L436 0L349 0L349 0L262 0L262 0L175 0L175 0L87 0L87 0L0 0Z" fill="#fa7268"></path><path d="M0 174L87 174L87 141L175 141L175 120L262 120L262 114L349 114L349 152L436 152L436 206L524 206L524 179L611 179L611 168L698 168L698 185L785 185L785 114L873 114L873 93L960 93L960 163L960 112L960 58L873 58L873 58L785 58L785 129L698 129L698 134L611 134L611 112L524 112L524 118L436 118L436 118L349 118L349 69L262 69L262 42L175 42L175 69L87 69L87 102L0 102Z" fill="#ea5e66"></path><path d="M0 390L87 390L87 255L175 255L175 363L262 363L262 363L349 363L349 293L436 293L436 293L524 293L524 266L611 266L611 249L698 249L698 330L785 330L785 320L873 320L873 336L960 336L960 309L960 161L960 91L873 91L873 112L785 112L785 183L698 183L698 166L611 166L611 177L524 177L524 204L436 204L436 150L349 150L349 112L262 112L262 118L175 118L175 139L87 139L87 172L0 172Z" fill="#d84a64"></path><path d="M0 482L87 482L87 433L175 433L175 455L262 455L262 465L349 465L349 476L436 476L436 471L524 471L524 492L611 492L611 444L698 444L698 428L785 428L785 444L873 444L873 492L960 492L960 444L960 307L960 334L873 334L873 318L785 318L785 328L698 328L698 247L611 247L611 264L524 264L524 291L436 291L436 291L349 291L349 361L262 361L262 361L175 361L175 253L87 253L87 388L0 388Z" fill="#c53762"></path><path d="M0 541L87 541L87 541L175 541L175 541L262 541L262 541L349 541L349 541L436 541L436 541L524 541L524 541L611 541L611 541L698 541L698 541L785 541L785 541L873 541L873 541L960 541L960 541L960 442L960 490L873 490L873 442L785 442L785 426L698 426L698 442L611 442L611 490L524 490L524 469L436 469L436 474L349 474L349 463L262 463L262 453L175 453L175 431L87 431L87 480L0 480Z" fill="#b0235f"></path></svg>